{"accessors":[{"bufferView":0,"componentType":5121,"count":216,"max":[161],"min":[0],"type":"SCALAR"},{"bufferView":1,"componentType":5126,"count":162,"max":[12.485029220581055,1.653775691986084,2.908398389816284],"min":[-12.485031127929688,0.2331598699092865,-3.019386053085327],"type":"VEC3"},{"bufferView":2,"componentType":5126,"count":162,"max":[1.0,0.9718891978263855,1.0],"min":[-1.0,-1.0,-0.9990978837013245],"type":"VEC3"},{"bufferView":3,"componentType":5126,"count":162,"max":[1.0,1.0,0.8222461938858032,1.0],"min":[-1.0,-7.530783818765485e-07,-0.8071216940879822,1.0],"type":"VEC4"},{"bufferView":4,"componentType":5126,"count":162,"max":[0.875,1.0],"min":[0.125,0.0],"type":"VEC2"},{"bufferView":5,"componentType":5121,"count":36,"max":[23],"min":[0],"type":"SCALAR"},{"bufferView":6,"componentType":5126,"count":24,"max":[1.0,1.0,1.0],"min":[-1.0,-1.0,-1.0],"type":"VEC3"},{"bufferView":7,"componentType":5126,"count":24,"max":[1.0,1.0,1.0],"min":[-1.0,-1.0,-1.0],"type":"VEC3"},{"bufferView":8,"componentType":5126,"count":24,"max":[0.875,1.0],"min":[0.125,0.0],"type":"VEC2"},{"bufferView":9,"componentType":5121,"count":36,"max":[23],"min":[0],"type":"SCALAR"},{"bufferView":10,"componentType":5126,"count":24,"max":[1.0,1.0,1.0],"min":[-1.0,-1.0,-1.0],"type":"VEC3"},{"bufferView":11,"componentType":5126,"count":24,"max":[1.0,1.0,1.0],"min":[-1.0,-1.0,-1.0],"type":"VEC3"},{"bufferView":12,"componentType":5126,"count":24,"max":[0.875,1.0],"min":[0.125,0.0],"type":"VEC2"},{"bufferView":13,"componentType":5123,"count":3060,"max":[942],"min":[0],"type":"SCALAR"},{"bufferView":14,"componentType":5126,"count":943,"max":[3.1399998664855957,1.8546584844589233,3.1399998664855957],"min":[-3.1399998664855957,0.034915268421173096,-3.1399998664855957],"type":"VEC3"},{"bufferView":15,"componentType":5126,"count":943,"max":[1.0,1.0,1.0],"min":[-1.0,-1.0,-1.0],"type":"VEC3"},{"bufferView":16,"componentType":5126,"count":943,"max":[1.0,0.8811346292495728,1.0,1.0],"min":[-1.0,-0.8744486570358276,-1.0,-1.0],"type":"VEC4"},{"bufferView":17,"componentType":5126,"count":943,"max":[1.0006154775619507,0.9900000095367432],"min":[-0.0006153063150122762,-2.384185791015625e-07],"type":"VEC2"},{"bufferView":18,"componentType":5121,"count":186,"max":[66],"min":[0],"type":"SCALAR"},{"bufferView":19,"componentType":5126,"count":67,"max":[0.9746140241622925,1.8141173124313354,1.3164222240447998],"min":[-0.910782516002655,1.502562403678894,-1.3164222240447998],"type":"VEC3"},{"bufferView":20,"componentType":5126,"count":67,"max":[0.5643080472946167,-0.4568859934806824,0.784492015838623],"min":[-0.5643091201782227,-0.48732003569602966,-0.7844913005828857],"type":"VEC3"},{"bufferView":21,"componentType":5126,"count":67,"max":[0.922062873840332,1.7881393432617188e-07],"min":[0.0698118507862091,-1.1920928955078125e-07],"type":"VEC2"},{"bufferView":22,"componentType":5121,"count":6,"max":[3],"min":[0],"type":"SCALAR"},{"bufferView":23,"componentType":5126,"count":4,"max":[0.9245153665542603,1.551222801208496,-1.136115550994873],"min":[0.8177009224891663,1.5060145854949951,-1.244755506515503],"type":"VEC3"},{"bufferView":24,"componentType":5126,"count":4,"max":[-0.5545862913131714,-0.48556825518608093,0.6757643818855286],"min":[-0.5545862913131714,-0.48556825518608093,0.6757643818855286],"type":"VEC3"},{"bufferView":25,"componentType":5126,"count":4,"max":[0.90625,1.1920928955078125e-07],"min":[0.8912839293479919,5.960464477539063e-08],"type":"VEC2"},{"bufferView":26,"componentType":5123,"count":3342,"max":[573],"min":[0],"type":"SCALAR"},{"bufferView":27,"componentType":5126,"count":574,"max":[1.0,4.099442005157471,5.8173699378967285],"min":[-1.0,1.4374043941497803,-6.920999050140381],"type":"VEC3"},{"bufferView":28,"componentType":5126,"count":574,"max":[0.9996922612190247,0.9941695332527161,1.0],"min":[-1.0,-1.0,-0.958990752696991],"type":"VEC3"},{"bufferView":29,"componentType":5126,"count":574,"max":[0.875,1.0],"min":[0.0,0.0],"type":"VEC2"},{"bufferView":30,"componentType":5121,"count":360,"max":[191],"min":[0],"type":"SCALAR"},{"bufferView":31,"componentType":5126,"count":192,"max":[0.9798388481140137,1.912197470664978,5.735324859619141],"min":[-0.9220768213272095,1.8508961200714111,-1.2770801782608032],"type":"VEC3"},{"bufferView":32,"componentType":5126,"count":192,"max":[0.9659250378608704,0.9659460186958313,1.0],"min":[-0.9659261107444763,-0.9659266471862793,-1.0],"type":"VEC3"},{"bufferView":33,"componentType":5126,"count":192,"max":[0.0,1.0],"min":[0.0,1.0],"type":"VEC2"},{"bufferView":34,"componentType":5121,"count":42,"max":[19],"min":[0],"type":"SCALAR"},{"bufferView":35,"componentType":5126,"count":20,"max":[1.0,1.924074411392212,5.8173699378967285],"min":[-1.0,1.4374043941497803,5.548050880432129],"type":"VEC3"},{"bufferView":36,"componentType":5126,"count":20,"max":[1.0,1.0,-0.0],"min":[0.0,-3.000000106112566e-06,-1.0],"type":"VEC3"},{"bufferView":37,"componentType":5126,"count":20,"max":[0.625,1.0],"min":[0.125,0.25],"type":"VEC2"}],"asset":{"generator":"Verge3D for Blender v4.8.0","version":"2.0"},"bufferViews":[{"buffer":0,"byteLength":216,"byteOffset":0,"target":34963},{"buffer":0,"byteLength":1944,"byteOffset":216,"target":34962},{"buffer":0,"byteLength":1944,"byteOffset":2160,"target":34962},{"buffer":0,"byteLength":2592,"byteOffset":4104,"target":34962},{"buffer":0,"byteLength":1296,"byteOffset":6696,"target":34962},{"buffer":0,"byteLength":36,"byteOffset":7992,"target":34963},{"buffer":0,"byteLength":288,"byteOffset":8028,"target":34962},{"buffer":0,"byteLength":288,"byteOffset":8316,"target":34962},{"buffer":0,"byteLength":192,"byteOffset":8604,"target":34962},{"buffer":0,"byteLength":36,"byteOffset":8796,"target":34963},{"buffer":0,"byteLength":288,"byteOffset":8832,"target":34962},{"buffer":0,"byteLength":288,"byteOffset":9120,"target":34962},{"buffer":0,"byteLength":192,"byteOffset":9408,"target":34962},{"buffer":0,"byteLength":6120,"byteOffset":9600,"target":34963},{"buffer":0,"byteLength":11316,"byteOffset":15720,"target":34962},{"buffer":0,"byteLength":11316,"byteOffset":27036,"target":34962},{"buffer":0,"byteLength":15088,"byteOffset":38352,"target":34962},{"buffer":0,"byteLength":7544,"byteOffset":53440,"target":34962},{"buffer":0,"byteLength":186,"byteOffset":60984,"target":34963},{"buffer":0,"byteLength":804,"byteOffset":61172,"target":34962},{"buffer":0,"byteLength":804,"byteOffset":61976,"target":34962},{"buffer":0,"byteLength":536,"byteOffset":62780,"target":34962},{"buffer":0,"byteLength":6,"byteOffset":63316,"target":34963},{"buffer":0,"byteLength":48,"byteOffset":63324,"target":34962},{"buffer":0,"byteLength":48,"byteOffset":63372,"target":34962},{"buffer":0,"byteLength":32,"byteOffset":63420,"target":34962},{"buffer":0,"byteLength":6684,"byteOffset":63452,"target":34963},{"buffer":0,"byteLength":6888,"byteOffset":70136,"target":34962},{"buffer":0,"byteLength":6888,"byteOffset":77024,"target":34962},{"buffer":0,"byteLength":4592,"byteOffset":83912,"target":34962},{"buffer":0,"byteLength":360,"byteOffset":88504,"target":34963},{"buffer":0,"byteLength":2304,"byteOffset":88864,"target":34962},{"buffer":0,"byteLength":2304,"byteOffset":91168,"target":34962},{"buffer":0,"byteLength":1536,"byteOffset":93472,"target":34962},{"buffer":0,"byteLength":42,"byteOffset":95008,"target":34963},{"buffer":0,"byteLength":240,"byteOffset":95052,"target":34962},{"buffer":0,"byteLength":240,"byteOffset":95292,"target":34962},{"buffer":0,"byteLength":160,"byteOffset":95532,"target":34962}],"buffers":[{"byteLength":95692,"uri":"Fire.bin"}],"cameras":[{"extensions":{"S8S_v3d_camera":{"controls":"ORBIT","enablePan":true,"moveSpeed":1.0,"orbitMaxDistance":100.0,"orbitMaxPolarAngle":3.1415927410125732,"orbitMaxZoom":100.0,"orbitMinDistance":0.0,"orbitMinPolarAngle":0.0,"orbitMinZoom":0.009999999776482582,"orbitTarget":[0.0,0.0,-0.0],"rotateSpeed":1.0,"viewportFitInitialAspect":1.7777777777777777,"viewportFitType":"AUTO"}},"name":"Camera","perspective":{"aspectRatio":1.7777777777777777,"yfov":0.5033797091205937,"zfar":100.0,"znear":0.10000000149011612},"type":"perspective"}],"extensions":{"S8S_v3d_lights":{"lights":[{"color":[1.0,1.0,1.0],"intensity":1.0,"name":"Sun","profile":"blender","shadow":{"bias":-0.0018,"cameraFar":100,"cameraFov":0,"cameraNear":0.1,"csm":{"count":4,"exponent":0.800000011920929,"fade":0.10000000149011612,"lightMargin":0.0,"maxDistance":1000.0},"enabled":true,"expBias":2.5,"mapSize":1024,"radius":1.0,"slopeScaledBias":2.5},"type":"directional"},{"color":[1.0,1.0,1.0],"intensity":1.0,"name":"Sun.001","profile":"blender","shadow":{"bias":-0.0018,"cameraFar":100,"cameraFov":0,"cameraNear":0.1,"csm":{"count":4,"exponent":0.800000011920929,"fade":0.10000000149011612,"lightMargin":0.0,"maxDistance":1000.0},"enabled":true,"expBias":2.5,"mapSize":1024,"radius":1.0,"slopeScaledBias":2.5},"type":"directional"}]}},"extensionsUsed":["S8S_v3d_texture","S8S_v3d_materials","S8S_v3d_camera","S8S_v3d_lights","S8S_v3d_mesh","S8S_v3d_node","S8S_v3d_scene"],"images":[{"uri":"environment.hdr"}],"materials":[{"alphaMode":"OPAQUE","extensions":{"S8S_v3d_materials":{"gtaoVisible":true,"materialIndex":0,"nodeGraph":{"edges":[{"fromNode":0,"fromOutput":0,"toInput":0,"toNode":1},{"fromNode":2,"fromOutput":0,"toInput":5,"toNode":0}],"nodes":[{"inputs":[[0.07198908925056458,0.05055761709809303,0.0,1.0],0.4021739065647125,0.0,1.5,1.0,[0.0,0.0,0.0],0.0,0.0,[1.0,0.20000000298023224,0.10000000149011612],0.05000000074505806,1.399999976158142,0.0,0.5,[1.0,1.0,1.0,1.0],0.0,0.0,[0.0,0.0,0.0],0.0,0.0,0.029999999329447746,1.5,[1.0,1.0,1.0,1.0],[0.0,0.0,0.0],0.0,0.5,[1.0,1.0,1.0,1.0],[1.0,1.0,1.0,1.0],0.0,0.0,1.3300000429153442],"is_active_output":false,"name":"Principled BSDF","outputs":[[0,0,0,0]],"type":"BSDF_PRINCIPLED_BL"},{"inputs":[[0,0,0,0],[0,0,0,0],[0.0,0.0,0.0],0.0],"is_active_output":true,"name":"Material Output","outputs":[],"type":"OUTPUT_MATERIAL_BL"},{"inputs":[0.0,[0.5,0.5,1.0,1.0]],"is_active_output":false,"name":"Normal Map","outputs":[[0.0,0.0,0.0]],"type":"NORMAL_MAP_BL","uvLayer":""}]}}},"name":"Material.001"},{"alphaMode":"OPAQUE","extensions":{"S8S_v3d_materials":{"gtaoVisible":true,"materialIndex":0,"nodeGraph":{"edges":[{"fromNode":0,"fromOutput":0,"toInput":0,"toNode":1}],"nodes":[{"inputs":[[0.06593993306159973,0.0004046505782753229,0.0,1.0],0.6000000238418579,0.0,1.5,1.0,[0.0,0.0,0.0],0.0,0.0,[1.0,0.20000000298023224,0.10000000149011612],0.05000000074505806,1.399999976158142,0.0,0.5,[1.0,1.0,1.0,1.0],0.0,0.0,[0.0,0.0,0.0],0.0,0.0,0.029999999329447746,1.5,[1.0,1.0,1.0,1.0],[0.0,0.0,0.0],0.0,0.5,[1.0,1.0,1.0,1.0],[1.0,1.0,1.0,1.0],0.0,0.0,1.3300000429153442],"is_active_output":false,"name":"Principled BSDF","outputs":[[0,0,0,0]],"type":"BSDF_PRINCIPLED_BL"},{"inputs":[[0,0,0,0],[0,0,0,0],[0.0,0.0,0.0],0.0],"is_active_output":true,"name":"Material Output","outputs":[],"type":"OUTPUT_MATERIAL_BL"}]}}},"name":"Material.003"},{"alphaMode":"OPAQUE","extensions":{"S8S_v3d_materials":{"gtaoVisible":true,"materialIndex":0,"nodeGraph":{"edges":[{"fromNode":0,"fromOutput":0,"toInput":0,"toNode":1},{"fromNode":2,"fromOutput":0,"toInput":5,"toNode":0}],"nodes":[{"inputs":[[0.23821792006492615,0.235323965549469,0.19368934631347656,1.0],0.30000001192092896,0.0,1.5,1.0,[0.0,0.0,0.0],0.0,0.0,[1.0,0.20000000298023224,0.10000000149011612],0.05000000074505806,1.399999976158142,0.0,0.5,[1.0,1.0,1.0,1.0],0.0,0.0,[0.0,0.0,0.0],0.0,0.0,0.029999999329447746,1.5,[1.0,1.0,1.0,1.0],[0.0,0.0,0.0],0.0,0.5,[1.0,1.0,1.0,1.0],[1.0,1.0,1.0,1.0],0.0,0.0,1.3300000429153442],"is_active_output":false,"name":"Principled BSDF","outputs":[[0,0,0,0]],"type":"BSDF_PRINCIPLED_BL"},{"inputs":[[0,0,0,0],[0,0,0,0],[0.0,0.0,0.0],0.0],"is_active_output":true,"name":"Material Output","outputs":[],"type":"OUTPUT_MATERIAL_BL"},{"inputs":[0.0,[0.5,0.5,1.0,1.0]],"is_active_output":false,"name":"Normal Map","outputs":[[0.0,0.0,0.0]],"type":"NORMAL_MAP_BL","uvLayer":""}]}}},"name":"Material.004"},{"alphaMode":"BLEND","extensions":{"S8S_v3d_materials":{"gtaoVisible":true,"materialIndex":0,"nodeGraph":{"edges":[{"fromNode":0,"fromOutput":0,"toInput":0,"toNode":1}],"nodes":[{"inputs":[[0.800000011920929,0.800000011920929,0.800000011920929,1.0],0.0,0.5,1.5,0.0,[0.0,0.0,0.0],0.0,0.0,[1.0,0.20000000298023224,0.10000000149011612],0.05000000074505806,1.399999976158142,0.0,0.5,[1.0,1.0,1.0,1.0],0.0,0.0,[0.0,0.0,0.0],0.0,0.0,0.029999999329447746,1.5,[1.0,1.0,1.0,1.0],[0.0,0.0,0.0],0.0,0.5,[1.0,1.0,1.0,1.0],[1.0,1.0,1.0,1.0],0.0,0.0,1.3300000429153442],"is_active_output":false,"name":"Principled BSDF","outputs":[[0,0,0,0]],"type":"BSDF_PRINCIPLED_BL"},{"inputs":[[0,0,0,0],[0,0,0,0],[0.0,0.0,0.0],0.0],"is_active_output":true,"name":"Material Output","outputs":[],"type":"OUTPUT_MATERIAL_BL"}]}}},"name":"Material.005"},{"alphaMode":"BLEND","extensions":{"S8S_v3d_materials":{"gtaoVisible":true,"materialIndex":0,"nodeGraph":{"edges":[{"fromNode":0,"fromOutput":0,"toInput":0,"toNode":1}],"nodes":[{"inputs":[[0.0009790767217054963,0.0009790767217054963,0.0009790767217054963,1.0],0.0,1.0,1.5,0.800000011920929,[0.0,0.0,0.0],0.0,0.0,[1.0,0.20000000298023224,0.10000000149011612],0.05000000074505806,1.399999976158142,0.0,0.5,[1.0,1.0,1.0,1.0],0.0,0.0,[0.0,0.0,0.0],0.0,0.0,0.029999999329447746,1.5,[1.0,1.0,1.0,1.0],[0.0,0.0,0.0],0.0,0.5,[1.0,1.0,1.0,1.0],[1.0,1.0,1.0,1.0],0.0,0.0,1.3300000429153442],"is_active_output":false,"name":"Principled BSDF","outputs":[[0,0,0,0]],"type":"BSDF_PRINCIPLED_BL"},{"inputs":[[0,0,0,0],[0,0,0,0],[0.0,0.0,0.0],0.0],"is_active_output":true,"name":"Material Output","outputs":[],"type":"OUTPUT_MATERIAL_BL"}]}}},"name":"Material.009"},{"alphaMode":"BLEND","extensions":{"S8S_v3d_materials":{"gtaoVisible":true,"materialIndex":0,"nodeGraph":{"edges":[{"fromNode":0,"fromOutput":0,"toInput":0,"toNode":1}],"nodes":[{"inputs":[[0.0,0.0,0.0,1.0],0.0,0.5,1.5,0.5,[0.0,0.0,0.0],0.0,0.0,[1.0,0.20000000298023224,0.10000000149011612],0.05000000074505806,1.399999976158142,0.0,0.5,[1.0,1.0,1.0,1.0],0.0,0.0,[0.0,0.0,0.0],0.0,0.0,0.029999999329447746,1.5,[1.0,1.0,1.0,1.0],[0.0,0.0,0.0],0.0,0.5,[1.0,1.0,1.0,1.0],[1.0,1.0,1.0,1.0],0.0,0.0,1.3300000429153442],"is_active_output":false,"name":"Principled BSDF","outputs":[[0,0,0,0]],"type":"BSDF_PRINCIPLED_BL"},{"inputs":[[0,0,0,0],[0,0,0,0],[0.0,0.0,0.0],0.0],"is_active_output":true,"name":"Material Output","outputs":[],"type":"OUTPUT_MATERIAL_BL"}]}}},"name":"Material.011"},{"alphaMode":"OPAQUE","extensions":{"S8S_v3d_materials":{"gtaoVisible":true,"materialIndex":0,"nodeGraph":{"edges":[{"fromNode":0,"fromOutput":0,"toInput":0,"toNode":1},{"fromNode":4,"fromOutput":0,"toInput":6,"toNode":2},{"fromNode":3,"fromOutput":0,"toInput":0,"toNode":2},{"fromNode":2,"fromOutput":2,"toInput":0,"toNode":0}],"nodes":[{"inputs":[[0.05087608844041824,0.05087608844041824,0.05087608844041824,1.0],1.0],"is_active_output":false,"name":"Background","outputs":[[0,0,0,0]],"type":"BACKGROUND_BL"},{"inputs":[[0,0,0,0],[0,0,0,0]],"is_active_output":true,"name":"World Output","outputs":[],"type":"OUTPUT_WORLD_BL"},{"blendType":"MIX","clampFactor":true,"clampResult":false,"dataType":"RGBA","factorMode":"UNIFORM","inputs":[0.5,[0.5,0.5,0.5],0.0,0.0,[0.0,0.0,0.0],[0.0,0.0,0.0],[0.5,0.5,0.5,1.0],[0.05126946419477463,0.05126946419477463,0.05126946419477463,1.0],0,0],"is_active_output":false,"name":"Mix","outputs":[0.0,[0.0,0.0,0.0],[0.0,0.0,0.0,0.0],0],"type":"MIX_BL"},{"inputs":[],"is_active_output":false,"name":"Light Path","outputs":[0.0,0.0,0.0,0.0,0.0,0.0,0.0,0.0,0.0,0.0,0.0,0.0,0.0,0.0],"type":"LIGHT_PATH_BL"},{"inputs":[[0.0,0.0,0.0]],"is_active_output":false,"name":"Environment Texture","outputs":[[0.0,0.0,0.0,0.0]],"projection":"EQUIRECTANGULAR","texture":0,"type":"TEX_ENVIRONMENT_BL"}]}}},"name":"Verge3D_Environment_World"}],"meshes":[{"extensions":{"S8S_v3d_mesh":{"colorLayers":{},"uvLayers":{"UVMap":"TEXCOORD_0"}}},"name":"Cube","primitives":[{"attributes":{"NORMAL":2,"POSITION":1,"TANGENT":3,"TEXCOORD_0":4},"indices":0,"material":0,"mode":4}]},{"extensions":{"S8S_v3d_mesh":{"colorLayers":{},"uvLayers":{"UVMap":"TEXCOORD_0"}}},"name":"Cube.001","primitives":[{"attributes":{"NORMAL":7,"POSITION":6,"TEXCOORD_0":8},"indices":5,"material":3,"mode":4}]},{"extensions":{"S8S_v3d_mesh":{"colorLayers":{},"uvLayers":{"UVMap":"TEXCOORD_0"}}},"name":"Cube.002","primitives":[{"attributes":{"NORMAL":11,"POSITION":10,"TEXCOORD_0":12},"indices":9,"material":3,"mode":4}]},{"extensions":{"S8S_v3d_mesh":{"colorLayers":{},"uvLayers":{"UVMap":"TEXCOORD_0"}}},"name":"Cylinder.002","primitives":[{"attributes":{"NORMAL":15,"POSITION":14,"TANGENT":16,"TEXCOORD_0":17},"indices":13,"material":2,"mode":4}]},{"extensions":{"S8S_v3d_mesh":{"colorLayers":{},"uvLayers":{"UVMap":"TEXCOORD_0"}}},"name":"Cylinder.003","primitives":[{"attributes":{"NORMAL":20,"POSITION":19,"TEXCOORD_0":21},"indices":18,"material":4,"mode":4}]},{"extensions":{"S8S_v3d_mesh":{"colorLayers":{},"uvLayers":{"UVMap":"TEXCOORD_0"}}},"name":"Cylinder.004","primitives":[{"attributes":{"NORMAL":24,"POSITION":23,"TEXCOORD_0":25},"indices":22,"material":4,"mode":4}]},{"extensions":{"S8S_v3d_mesh":{"colorLayers":{},"uvLayers":{"UVMap":"TEXCOORD_0"}}},"name":"Cylinder.005","primitives":[{"attributes":{"NORMAL":28,"POSITION":27,"TEXCOORD_0":29},"indices":26,"material":1,"mode":4}]},{"extensions":{"S8S_v3d_mesh":{"colorLayers":{},"uvLayers":{"UVMap":"TEXCOORD_0"}}},"name":"Cylinder.009","primitives":[{"attributes":{"NORMAL":32,"POSITION":31,"TEXCOORD_0":33},"indices":30,"material":5,"mode":4}]},{"extensions":{"S8S_v3d_mesh":{"colorLayers":{},"uvLayers":{"UVMap":"TEXCOORD_0"}}},"name":"Cylinder.010","primitives":[{"attributes":{"NORMAL":36,"POSITION":35,"TEXCOORD_0":37},"indices":34,"material":1,"mode":4}]}],"nodes":[{"extensions":{"S8S_v3d_node":{"frustumCulling":true,"groupNames":[],"hidden":false,"hidpiCompositing":false,"objectColor":[1.0,1.0,1.0,1.0],"objectIndex":0,"renderOrder":0,"useCastShadows":true}},"name":"camerax","translation":[7.1090803146362305,5.130673408508301,7.532689571380615]},{"extensions":{"S8S_v3d_node":{"frustumCulling":true,"groupNames":[],"hidden":false,"hidpiCompositing":false,"objectColor":[1.0,1.0,1.0,1.0],"objectIndex":0,"renderOrder":0,"useCastShadows":true,"useShadows":true}},"mesh":5,"name":"Cylinder.002","rotation":[0.0,0.43227049708366394,-0.0,0.9017439484596252],"scale":[0.48521971702575684,0.48521971702575684,0.48521971702575684],"translation":[0.300198495388031,0.0,1.0268813371658325]},{"extensions":{"S8S_v3d_node":{"frustumCulling":true,"groupNames":[],"hidden":false,"hidpiCompositing":false,"objectColor":[1.0,1.0,1.0,1.0],"objectIndex":0,"renderOrder":0,"useCastShadows":true,"useShadows":true}},"mesh":3,"name":"Placa","rotation":[0.0,0.43227049708366394,-0.0,0.9017439484596252],"scale":[0.48521971702575684,0.48521971702575684,0.48521971702575684],"translation":[0.300198495388031,0.0,1.0268813371658325]},{"extensions":{"S8S_v3d_node":{"frustumCulling":true,"groupNames":[],"hidden":false,"hidpiCompositing":false,"objectColor":[1.0,1.0,1.0,1.0],"objectIndex":0,"renderOrder":0,"useCastShadows":true,"useShadows":true}},"name":"Cylinder.004","translation":[0.0,0.0,-1.2073277235031128]},{"extensions":{"S8S_v3d_lights":{"light":1},"S8S_v3d_node":{"frustumCulling":true,"groupNames":[],"hidden":false,"hidpiCompositing":false,"objectColor":[1.0,1.0,1.0,1.0],"objectIndex":0,"renderOrder":0,"useCastShadows":true}},"name":"Sun.001","rotation":[-0.7071067690849304,0.0,0.0,0.7071067690849304],"scale":[1.0,0.9999999403953552,0.9999999403953552],"translation":[-10.464365005493164,1.5565900802612305,7.336057186126709]},{"extensions":{"S8S_v3d_node":{"frustumCulling":true,"groupNames":[],"hidden":false,"hidpiCompositing":false,"objectColor":[1.0,1.0,1.0,1.0],"objectIndex":0,"renderOrder":0,"useCastShadows":true,"useShadows":true}},"mesh":8,"name":"Cylinder.006","rotation":[0.0,0.43227049708366394,-0.0,0.9017439484596252],"scale":[0.48521971702575684,0.48521971702575684,0.48521971702575684],"translation":[-0.18298231065273285,0.0,0.6387198567390442]},{"extensions":{"S8S_v3d_node":{"frustumCulling":true,"groupNames":[],"hidden":false,"hidpiCompositing":false,"objectColor":[1.0,1.0,1.0,1.0],"objectIndex":0,"renderOrder":0,"useCastShadows":true,"useShadows":true}},"mesh":1,"name":"paloooo","rotation":[0.0,0.43227046728134155,-0.0,0.90174400806427],"scale":[0.056863363832235336,0.056863363832235336,0.056863363832235336],"translation":[-2.648833751678467,1.6853848695755005,-1.3455533981323242]},{"extensions":{"S8S_v3d_node":{"frustumCulling":true,"groupNames":[],"hidden":false,"hidpiCompositing":false,"objectColor":[1.0,1.0,1.0,1.0],"objectIndex":0,"renderOrder":0,"useCastShadows":true,"useShadows":true}},"mesh":2,"name":"ganvho","rotation":[0.0,0.43227046728134155,-0.0,0.90174400806427],"scale":[0.056863363832235336,0.056863363832235336,0.056863363832235336],"translation":[2.0111289024353027,0.7935705184936523,2.352585554122925]},{"extensions":{"S8S_v3d_node":{"frustumCulling":true,"groupNames":[],"hidden":false,"hidpiCompositing":false,"objectColor":[1.0,1.0,1.0,1.0],"objectIndex":0,"renderOrder":0,"useCastShadows":true,"useShadows":true}},"mesh":4,"name":"Cylinder.001","rotation":[0.0,0.43227049708366394,-0.0,0.9017439484596252],"scale":[0.48521971702575684,0.48521971702575684,0.48521971702575684],"translation":[0.300198495388031,0.0,1.0268813371658325]},{"extensions":{"S8S_v3d_node":{"frustumCulling":true,"groupNames":[],"hidden":false,"hidpiCompositing":false,"objectColor":[1.0,1.0,1.0,1.0],"objectIndex":0,"renderOrder":0,"useCastShadows":true,"useShadows":true}},"mesh":0,"name":"Cube","rotation":[0.0,0.256624698638916,-0.0,0.9665111303329468],"scale":[0.11696603894233704,0.48521971702575684,0.48521971702575684],"translation":[0.300198495388031,0.0,1.0268813371658325]},{"extensions":{"S8S_v3d_node":{"frustumCulling":true,"groupNames":[],"hidden":false,"hidpiCompositing":false,"objectColor":[1.0,1.0,1.0,1.0],"objectIndex":0,"renderOrder":0,"useCastShadows":true,"useShadows":true}},"mesh":6,"name":"Cylinder.003","rotation":[0.0,0.43227049708366394,-0.0,0.9017439484596252],"scale":[0.48521971702575684,0.48521971702575684,0.48521971702575684],"translation":[-0.18298231065273285,0.0,0.6387198567390442]},{"extensions":{"S8S_v3d_node":{"frustumCulling":true,"groupNames":[],"hidden":false,"hidpiCompositing":false,"objectColor":[1.0,1.0,1.0,1.0],"objectIndex":0,"renderOrder":0,"useCastShadows":true,"useShadows":true}},"mesh":7,"name":"Cylinder.005","rotation":[0.0,0.43227049708366394,-0.0,0.90174400806427],"scale":[0.42008283734321594,0.42008283734321594,0.5321815609931946],"translation":[-0.15650300681591034,0.0,0.6599918603897095]},{"extensions":{"S8S_v3d_lights":{"light":0},"S8S_v3d_node":{"frustumCulling":true,"groupNames":[],"hidden":false,"hidpiCompositing":false,"objectColor":[1.0,1.0,1.0,1.0],"objectIndex":0,"renderOrder":0,"useCastShadows":true}},"name":"Sun","rotation":[-0.7071067690849304,0.0,0.0,0.7071067690849304],"scale":[1.0,0.9999999403953552,0.9999999403953552],"translation":[5.750200271606445,13.251482009887695,5.807028770446777]},{"camera":0,"extensions":{"S8S_v3d_node":{"frustumCulling":true,"groupNames":["Collection 1"],"hidden":false,"hidpiCompositing":false,"objectColor":[0.0,0.0,0.0,0.0],"objectIndex":0,"renderOrder":0,"useCastShadows":true}},"name":"Camera","rotation":[-0.20997299253940582,0.3857799470424652,0.09062844514846802,0.8937962055206299],"scale":[1.0,0.9999998807907104,0.9999998807907104],"translation":[5.606052398681641,5.1113457679748535,7.346681118011475]}],"samplers":[{}],"scene":0,"scenes":[{"extensions":{"S8S_v3d_scene":{"aaMethod":"AUTO","iblEnvironmentMode":"PMREM","physicallyCorrectLights":true,"pmremMaxTileSize":256,"shadowMap":{"esmDistanceScale":1.0,"renderReverseSided":false,"renderSingleSided":true,"type":"PCFPOISSON"},"worldMaterial":6}},"extras":{"animFrameRate":24,"coordSystem":"Z_UP_RIGHT"},"name":"Scene","nodes":[0,2,9,8,1,10,3,11,12,4,5,6,7,13]}],"textures":[{"extensions":{"S8S_v3d_texture":{"colorSpace":"linear rec.709","source":0}},"name":"environment.hdr","sampler":0}]}
